<svg width="360" height="112" viewBox="0 0 360 112" fill="none" xmlns="http://www.w3.org/2000/svg" role="img" aria-label="KORT logo">
  <rect x="16" y="20" width="72" height="72" rx="18" fill="#171717"/>
  <g transform="translate(32 30) scale(0.72)">
    <g transform="translate(-120, 0)">
      <path d="M121.097 65.4186C121.431 63.9186 122.597 60.9186 124.597 60.9186H164.597C165.931 61.752 168.497 63.8186 168.097 65.4186V71.4186H121.097V65.4186Z" fill="white"/>
      <path fill-rule="evenodd" clip-rule="evenodd" d="M124.597 24.4186C124.097 16.752 129.397 1.41865 154.597 1.41865L151.097 8.91865C151.097 8.91865 155.597 11.4186 157.597 10.9186C159.597 10.4186 160.597 17.4186 173.597 27.9186V32.4186L170.097 35.4186C170.097 35.4186 164.264 34.9186 165.597 35.9186C166.931 36.9186 162.097 32.4186 162.097 32.4186L154.097 32.9186L151.097 30.4186H149.597L147.597 32.9186V34.4186L164.597 57.9186H153.097L140.097 40.4186L135.597 45.9186V57.9186H124.597V24.4186ZM135.597 21.9186C139.997 11.1186 149.764 11.752 154.097 13.4186L135.597 32.9186V32.4186V21.9186Z" fill="white"/>
      <path d="M165.597 35.9186L170.097 35.4186L173.597 32.4186V27.9186C160.597 17.4186 159.597 10.4186 157.597 10.9186C155.597 11.4186 151.097 8.91865 151.097 8.91865L154.597 1.41865C129.397 1.41865 124.097 16.752 124.597 24.4186V57.9186H135.597V45.9186L140.097 40.4186L153.097 57.9186H164.597L147.597 34.4186V32.9186L149.597 30.4186H151.097L154.097 32.9186L162.097 32.4186C162.097 32.4186 166.931 36.9186 165.597 35.9186ZM170.097 35.4186C170.097 35.4186 164.264 34.9186 165.597 35.9186M165.597 35.9186C163.597 34.4186 162.097 32.4186 162.097 32.4186M135.597 32.4186L154.097 13.4186M135.597 32.4186V32.9186M135.597 21.9186V32.9186L154.097 13.4186C149.764 11.752 139.997 11.1186 135.597 21.9186V32.4186ZM121.097 65.4186C121.431 63.9186 122.597 60.9186 124.597 60.9186H164.597C165.931 61.752 168.497 63.8186 168.097 65.4186V71.4186H121.097V65.4186Z" stroke="white"/>
    </g>
  </g>
  <text x="108" y="49" fill="#171717" font-family="Arial Black, Impact, sans-serif" font-size="30" font-weight="900" letter-spacing="-0.02em">KNIGHTS OF</text>
  <text x="108" y="83" fill="#171717" font-family="Arial Black, Impact, sans-serif" font-size="30" font-weight="900" letter-spacing="-0.02em">ROUND TABLE</text>
</svg>
